<svg width="500" height="500" viewBox="0 0 500 500" fill="none" xmlns="http://www.w3.org/2000/svg">
<g clip-path="url(#clip0_2_2)">
<path d="M223.72 331.944L246.496 42.28H336.432L268.104 331.944H223.72ZM185.176 454L198.024 372.824H279.784L266.936 454H185.176Z" fill="#294D4A"/>
<path d="M223.72 331.944L210.336 330.892L209.198 345.369H223.72V331.944ZM246.496 42.28V28.8547H234.085L233.112 41.2276L246.496 42.28ZM336.432 42.28L349.499 45.3622L353.393 28.8547H336.432V42.28ZM268.104 331.944V345.369H278.731L281.171 335.026L268.104 331.944ZM185.176 454L171.916 451.901L169.459 467.425H185.176V454ZM198.024 372.824V359.399H186.556L184.764 370.725L198.024 372.824ZM279.784 372.824L293.044 374.923L295.501 359.399H279.784V372.824ZM266.936 454V467.425H278.404L280.196 456.099L266.936 454ZM237.104 332.996L259.88 43.3323L233.112 41.2276L210.336 330.892L237.104 332.996ZM246.496 55.7053H336.432V28.8547H246.496V55.7053ZM323.365 39.1977L255.037 328.862L281.171 335.026L349.499 45.3622L323.365 39.1977ZM268.104 318.519H223.72V345.369H268.104V318.519ZM198.436 456.099L211.284 374.923L184.764 370.725L171.916 451.901L198.436 456.099ZM198.024 386.249H279.784V359.399H198.024V386.249ZM266.524 370.725L253.676 451.901L280.196 456.099L293.044 374.923L266.524 370.725ZM266.936 440.575H185.176V467.425H266.936V440.575Z" fill="white"/>
</g>
<defs>
<clipPath id="clip0_2_2">
<rect width="500" height="500" fill="white"/>
</clipPath>
</defs>
</svg>
